<svg xmlns="http://www.w3.org/2000/svg" xmlns:xlink="http://www.w3.org/1999/xlink" width="200" zoomAndPan="magnify" viewBox="0 0 150 74.999997" height="100" preserveAspectRatio="xMidYMid meet" version="1.0"><defs><g/></defs><g fill="#ff61b6" fill-opacity="1"><g transform="translate(22.310775, 66.984683)"><g><path d="M 11.09375 -12.015625 C 11.25 -12.703125 11.492188 -13.71875 11.828125 -15.0625 C 12.148438 -16.375 12.394531 -17.351562 12.5625 -18 C 13.082031 -20.09375 13.867188 -23.269531 14.921875 -27.53125 C 15.929688 -31.75 16.695312 -34.921875 17.21875 -37.046875 C 17.414062 -37.828125 17.582031 -38.265625 17.71875 -38.359375 C 17.8125 -38.429688 18.25 -38.484375 19.03125 -38.515625 C 21.6875 -38.546875 25.660156 -38.609375 30.953125 -38.703125 C 36.253906 -38.773438 40.242188 -38.84375 42.921875 -38.90625 L 49.40625 -39.046875 L 50.28125 -39.046875 C 50.582031 -39.046875 50.765625 -38.851562 50.828125 -38.46875 C 50.859375 -38.300781 50.875 -38.070312 50.875 -37.78125 C 50.875 -37.644531 50.890625 -37.085938 50.921875 -36.109375 C 50.921875 -35.128906 50.875 -34.585938 50.78125 -34.484375 C 50.519531 -34.359375 50.242188 -34.28125 49.953125 -34.25 C 49.648438 -34.175781 49.398438 -34.140625 49.203125 -34.140625 C 48.972656 -34.140625 48.679688 -34.160156 48.328125 -34.203125 C 47.960938 -34.203125 47.703125 -34.203125 47.546875 -34.203125 C 37.472656 -34.003906 29.914062 -33.867188 24.875 -33.796875 C 24.613281 -33.765625 24.222656 -33.75 23.703125 -33.75 C 23.140625 -33.75 22.726562 -33.734375 22.46875 -33.703125 C 22.113281 -33.671875 21.867188 -33.640625 21.734375 -33.609375 C 21.597656 -33.578125 21.5 -33.492188 21.4375 -33.359375 C 21.34375 -33.234375 21.242188 -32.988281 21.140625 -32.625 C 21.109375 -32.5 21.0625 -32.269531 21 -31.9375 C 20.894531 -31.582031 20.828125 -31.304688 20.796875 -31.109375 C 19.460938 -25.679688 17.453125 -17.503906 14.765625 -6.578125 C 14.703125 -6.015625 14.640625 -5.617188 14.578125 -5.390625 C 14.472656 -5.035156 14.585938 -4.84375 14.921875 -4.8125 C 15.078125 -4.78125 15.304688 -4.765625 15.609375 -4.765625 C 15.960938 -4.722656 16.140625 -4.507812 16.140625 -4.125 C 16.140625 -3.332031 16.109375 -2.117188 16.046875 -0.484375 C 16.046875 -0.0976562 15.863281 0.09375 15.5 0.09375 L 14.328125 0.09375 C 12.398438 0.03125 9.535156 -0.0664062 5.734375 -0.203125 C 5.410156 -0.203125 5.179688 -0.21875 5.046875 -0.25 C 4.722656 -0.25 4.5625 -0.394531 4.5625 -0.6875 C 4.59375 -1.113281 4.609375 -1.75 4.609375 -2.59375 C 4.609375 -3.445312 4.625 -4.085938 4.65625 -4.515625 C 4.65625 -4.773438 4.804688 -4.9375 5.109375 -5 C 5.296875 -5.03125 5.585938 -5.046875 5.984375 -5.046875 C 6.503906 -5.015625 6.832031 -5.082031 6.96875 -5.25 C 7.0625 -5.414062 7.046875 -5.742188 6.921875 -6.234375 C 6.035156 -10.910156 4.820312 -16.992188 3.28125 -24.484375 C 3.25 -24.773438 3.171875 -25.195312 3.046875 -25.75 C 2.910156 -26.28125 2.828125 -26.675781 2.796875 -26.9375 C 2.734375 -27.332031 2.457031 -27.578125 1.96875 -27.671875 C 1.894531 -27.703125 1.597656 -27.75 1.078125 -27.8125 C 0.554688 -27.882812 0.226562 -28.050781 0.09375 -28.3125 C -0.0625 -28.375 -0.0625 -28.71875 0.09375 -29.34375 C 0.257812 -29.925781 0.34375 -30.269531 0.34375 -30.375 C 0.375 -30.632812 0.441406 -30.992188 0.546875 -31.453125 C 0.640625 -31.878906 0.6875 -32.140625 0.6875 -32.234375 C 0.78125 -32.660156 1.039062 -32.820312 1.46875 -32.71875 C 4.21875 -32.257812 5.660156 -32.015625 5.796875 -31.984375 C 6.472656 -31.859375 6.878906 -31.398438 7.015625 -30.609375 L 9.078125 -20.3125 C 9.398438 -18.8125 9.875 -16.34375 10.5 -12.90625 C 10.664062 -12.414062 10.863281 -12.117188 11.09375 -12.015625 Z M 11.09375 -12.015625 "/></g></g></g><g fill="#ff61b6" fill-opacity="1"><g transform="translate(46.103747, 66.984683)"><g><path d="M 0.34375 -17.859375 C 0.507812 -17.859375 0.753906 -17.890625 1.078125 -17.953125 C 1.671875 -18.023438 2.015625 -18.109375 2.109375 -18.203125 C 2.203125 -18.265625 2.234375 -18.539062 2.203125 -19.03125 C 2.203125 -21.65625 2.15625 -24.320312 2.0625 -27.03125 C 2.0625 -27.519531 2.007812 -27.832031 1.90625 -27.96875 C 1.8125 -28.0625 1.503906 -28.175781 0.984375 -28.3125 C 0.523438 -28.40625 0.265625 -28.503906 0.203125 -28.609375 C 0.0976562 -28.703125 0.046875 -28.992188 0.046875 -29.484375 C 0.046875 -30.691406 0.0625 -31.59375 0.09375 -32.1875 C 0.125 -32.675781 0.222656 -32.984375 0.390625 -33.109375 C 0.523438 -33.242188 0.835938 -33.3125 1.328125 -33.3125 C 4.203125 -33.25 6.328125 -33.21875 7.703125 -33.21875 L 18 -32.921875 L 18.546875 -32.921875 C 18.898438 -32.890625 19.144531 -32.820312 19.28125 -32.71875 C 19.375 -32.59375 19.40625 -32.363281 19.375 -32.03125 C 19.34375 -31.613281 19.3125 -30.992188 19.28125 -30.171875 C 19.21875 -29.316406 19.171875 -28.679688 19.140625 -28.265625 C 19.066406 -27.441406 18.96875 -26.210938 18.84375 -24.578125 C 18.675781 -22.910156 18.5625 -21.664062 18.5 -20.84375 C 18.46875 -20.488281 18.398438 -20.265625 18.296875 -20.171875 C 18.171875 -20.066406 17.941406 -20.03125 17.609375 -20.0625 L 14.515625 -20.21875 C 14.023438 -20.25 13.734375 -20.347656 13.640625 -20.515625 C 13.503906 -20.640625 13.453125 -20.960938 13.484375 -21.484375 C 13.679688 -23.835938 13.832031 -25.585938 13.9375 -26.734375 C 13.9375 -26.804688 13.953125 -26.90625 13.984375 -27.03125 C 13.984375 -27.164062 13.984375 -27.25 13.984375 -27.28125 C 13.984375 -27.738281 13.785156 -27.984375 13.390625 -28.015625 C 13.296875 -28.046875 13.164062 -28.0625 13 -28.0625 C 12.445312 -28.0625 11.613281 -28.078125 10.5 -28.109375 C 9.351562 -28.109375 8.503906 -28.109375 7.953125 -28.109375 C 7.617188 -28.109375 7.40625 -28.0625 7.3125 -27.96875 C 7.175781 -27.832031 7.109375 -27.601562 7.109375 -27.28125 C 7.179688 -24.851562 7.21875 -23.035156 7.21875 -21.828125 C 7.25 -21.472656 7.265625 -20.9375 7.265625 -20.21875 C 7.265625 -19.5 7.28125 -18.957031 7.3125 -18.59375 C 7.3125 -18.238281 7.375 -18.007812 7.5 -17.90625 C 7.601562 -17.78125 7.832031 -17.71875 8.1875 -17.71875 C 8.550781 -17.675781 9.125 -17.65625 9.90625 -17.65625 C 10.65625 -17.65625 11.226562 -17.640625 11.625 -17.609375 C 12.144531 -17.578125 12.40625 -17.316406 12.40625 -16.828125 C 12.40625 -16.046875 12.375 -14.898438 12.3125 -13.390625 C 12.28125 -13.035156 12.21875 -12.804688 12.125 -12.703125 C 11.988281 -12.609375 11.738281 -12.5625 11.375 -12.5625 C 11.050781 -12.5625 10.546875 -12.578125 9.859375 -12.609375 C 9.171875 -12.609375 8.648438 -12.609375 8.296875 -12.609375 C 7.765625 -12.609375 7.5 -12.363281 7.5 -11.875 C 7.539062 -10.53125 7.59375 -8.484375 7.65625 -5.734375 C 7.65625 -5.210938 7.898438 -4.953125 8.390625 -4.953125 L 12.953125 -4.953125 C 13.273438 -4.953125 13.488281 -5.003906 13.59375 -5.109375 C 13.65625 -5.171875 13.71875 -5.363281 13.78125 -5.6875 C 13.8125 -5.976562 13.878906 -6.40625 13.984375 -6.96875 C 14.078125 -7.519531 14.140625 -7.925781 14.171875 -8.1875 C 14.210938 -8.613281 14.460938 -8.8125 14.921875 -8.78125 C 15.335938 -8.71875 15.972656 -8.617188 16.828125 -8.484375 C 17.648438 -8.359375 18.269531 -8.257812 18.6875 -8.1875 C 19.050781 -8.125 19.203125 -7.914062 19.140625 -7.5625 C 19.003906 -6.414062 18.890625 -5.515625 18.796875 -4.859375 C 18.523438 -3.023438 18.3125 -1.648438 18.15625 -0.734375 C 18.09375 -0.378906 18.007812 -0.164062 17.90625 -0.09375 C 17.8125 0 17.582031 0.0625 17.21875 0.09375 L 1.96875 0.09375 C 1.40625 0.09375 0.992188 0.078125 0.734375 0.046875 C 0.335938 0.046875 0.140625 -0.148438 0.140625 -0.546875 C 0.109375 -1.066406 0.09375 -1.847656 0.09375 -2.890625 C 0.09375 -2.992188 0.078125 -3.191406 0.046875 -3.484375 C 0.015625 -3.742188 0.015625 -3.972656 0.046875 -4.171875 C 0.078125 -4.335938 0.144531 -4.5 0.25 -4.65625 C 0.375 -4.820312 0.535156 -4.921875 0.734375 -4.953125 C 0.929688 -4.984375 1.160156 -4.984375 1.421875 -4.953125 C 1.648438 -4.921875 1.832031 -4.921875 1.96875 -4.953125 C 2.289062 -4.984375 2.484375 -5.179688 2.546875 -5.546875 L 2.546875 -6.765625 C 2.546875 -7.878906 2.515625 -9.515625 2.453125 -11.671875 C 2.453125 -12.203125 2.40625 -12.53125 2.3125 -12.65625 C 2.207031 -12.757812 1.894531 -12.84375 1.375 -12.90625 C 1.050781 -12.90625 0.804688 -12.921875 0.640625 -12.953125 C 0.242188 -12.953125 0.046875 -13.128906 0.046875 -13.484375 C 0.046875 -15.679688 0.144531 -17.140625 0.34375 -17.859375 Z M 0.34375 -17.859375 "/></g></g></g><g fill="#ff61b6" fill-opacity="1"><g transform="translate(66.511744, 66.984683)"><g><path d="M 12.65625 -0.6875 C 12.53125 -0.976562 12.46875 -1.613281 12.46875 -2.59375 L 12.46875 -10.5 C 12.53125 -11.707031 12.101562 -12.609375 11.1875 -13.203125 C 11.019531 -13.328125 10.804688 -13.503906 10.546875 -13.734375 C 10.285156 -13.960938 10.140625 -14.09375 10.109375 -14.125 C 9.648438 -14.582031 9.222656 -14.710938 8.828125 -14.515625 C 8.503906 -14.390625 8.34375 -14 8.34375 -13.34375 C 8.375 -11.613281 8.421875 -9.046875 8.484375 -5.640625 C 8.515625 -4.722656 8.53125 -3.332031 8.53125 -1.46875 C 8.5625 -1.175781 8.53125 -0.984375 8.4375 -0.890625 C 8.34375 -0.785156 8.144531 -0.703125 7.84375 -0.640625 C 7.257812 -0.578125 6.347656 -0.476562 5.109375 -0.34375 C 3.859375 -0.207031 2.941406 -0.109375 2.359375 -0.046875 C 1.898438 0.015625 1.65625 -0.164062 1.625 -0.59375 C 1.425781 -2.15625 1.289062 -3.347656 1.21875 -4.171875 C 1.1875 -4.597656 1.414062 -4.875 1.90625 -5 C 2.007812 -5.03125 2.175781 -5.046875 2.40625 -5.046875 C 2.601562 -5.015625 2.78125 -5.015625 2.9375 -5.046875 C 3.070312 -5.085938 3.1875 -5.171875 3.28125 -5.296875 C 3.414062 -5.429688 3.5 -5.578125 3.53125 -5.734375 C 3.5625 -5.898438 3.5625 -6.113281 3.53125 -6.375 C 3.5 -6.632812 3.484375 -6.800781 3.484375 -6.875 L 3.046875 -26.59375 C 3.046875 -26.65625 3.046875 -26.769531 3.046875 -26.9375 C 3.015625 -27.101562 3 -27.234375 3 -27.328125 C 3 -27.753906 2.785156 -27.96875 2.359375 -27.96875 L 1.5625 -27.96875 C 1.207031 -27.96875 0.929688 -27.984375 0.734375 -28.015625 C 0.410156 -28.015625 0.210938 -28.191406 0.140625 -28.546875 C 0.109375 -29.367188 0.0625 -30.566406 0 -32.140625 C 0 -32.628906 0.257812 -32.890625 0.78125 -32.921875 C 1.039062 -32.953125 1.453125 -32.96875 2.015625 -32.96875 C 6.328125 -33.101562 9.5625 -33.21875 11.71875 -33.3125 C 12.40625 -33.3125 12.976562 -33.082031 13.4375 -32.625 C 15.863281 -30.269531 17.679688 -28.535156 18.890625 -27.421875 C 19.441406 -26.867188 19.617188 -26.234375 19.421875 -25.515625 C 18.773438 -23.023438 18.253906 -20.6875 17.859375 -18.5 C 17.660156 -17.289062 17.039062 -16.617188 16 -16.484375 C 15.570312 -16.421875 15.519531 -16.191406 15.84375 -15.796875 C 15.84375 -15.734375 15.875 -15.703125 15.9375 -15.703125 C 17.082031 -15.046875 17.59375 -13.800781 17.46875 -11.96875 C 17.40625 -11.96875 17.390625 -11.050781 17.421875 -9.21875 L 17.46875 -6.421875 C 17.46875 -5.804688 17.515625 -5.445312 17.609375 -5.34375 C 17.710938 -5.21875 18.039062 -5.117188 18.59375 -5.046875 C 19.34375 -5.015625 19.832031 -4.96875 20.0625 -4.90625 C 20.257812 -4.8125 20.390625 -4.613281 20.453125 -4.3125 C 20.492188 -3.988281 20.460938 -3.515625 20.359375 -2.890625 C 20.234375 -1.941406 20.148438 -1.175781 20.109375 -0.59375 C 20.046875 -0.195312 19.851562 -0.015625 19.53125 -0.046875 C 17.5625 -0.148438 15.269531 -0.363281 12.65625 -0.6875 Z M 8 -23.890625 C 8.09375 -23.890625 8.140625 -22.695312 8.140625 -20.3125 C 8.210938 -19.851562 8.457031 -19.671875 8.875 -19.765625 C 9.300781 -19.898438 9.941406 -20.082031 10.796875 -20.3125 C 11.609375 -20.539062 12.226562 -20.703125 12.65625 -20.796875 C 13.082031 -20.898438 13.34375 -21.195312 13.4375 -21.6875 C 13.570312 -22.238281 13.769531 -23.101562 14.03125 -24.28125 C 14.125 -24.738281 14.023438 -25.117188 13.734375 -25.421875 C 12.617188 -26.460938 11.800781 -27.242188 11.28125 -27.765625 C 10.957031 -28.097656 10.582031 -28.242188 10.15625 -28.203125 L 9.421875 -28.203125 C 8.734375 -28.140625 8.320312 -28.0625 8.1875 -27.96875 C 8.0625 -27.832031 8 -27.4375 8 -26.78125 Z M 8 -23.890625 "/></g></g></g><g fill="#ff61b6" fill-opacity="1"><g transform="translate(87.949948, 66.984683)"><g><path d="M -25.5625 7.5 L -25.703125 6.765625 L -26.15625 1.328125 C -26.21875 0.898438 -26.019531 0.65625 -25.5625 0.59375 C -25.164062 0.5625 -24.546875 0.507812 -23.703125 0.4375 C -22.878906 0.40625 -22.269531 0.375 -21.875 0.34375 C -21.613281 0.34375 -21.4375 0.472656 -21.34375 0.734375 L -21.296875 0.78125 L -21.296875 0.9375 C -21.265625 1 -21.25 1.144531 -21.25 1.375 C -21.25 1.601562 -21.210938 1.800781 -21.140625 1.96875 C -21.109375 2.125 -21.007812 2.253906 -20.84375 2.359375 C -20.65625 2.453125 -20.132812 2.46875 -19.28125 2.40625 C -16.894531 2.300781 -12.988281 2.15625 -7.5625 1.96875 C -2.15625 1.769531 1.738281 1.617188 4.125 1.515625 C 5.332031 1.484375 7.097656 1.40625 9.421875 1.28125 C 9.847656 1.238281 10.109375 1.171875 10.203125 1.078125 C 10.265625 1.015625 10.332031 0.785156 10.40625 0.390625 C 10.601562 -1.179688 10.796875 -2.703125 10.984375 -4.171875 C 11.054688 -4.921875 11.1875 -6.113281 11.375 -7.75 C 11.539062 -9.351562 11.675781 -10.582031 11.78125 -11.4375 C 11.84375 -11.820312 11.875 -12.164062 11.875 -12.46875 C 11.90625 -12.820312 11.890625 -13.066406 11.828125 -13.203125 C 11.722656 -13.328125 11.507812 -13.441406 11.1875 -13.546875 C 10.757812 -13.703125 10.15625 -13.910156 9.375 -14.171875 C 8.550781 -14.441406 8.039062 -14.609375 7.84375 -14.671875 C 5.625 -15.453125 3.941406 -16.039062 2.796875 -16.4375 C 2.046875 -16.664062 1.617188 -16.863281 1.515625 -17.03125 C 1.421875 -17.1875 1.375 -17.691406 1.375 -18.546875 L 1.375 -25.8125 C 1.375 -26.457031 1.359375 -26.929688 1.328125 -27.234375 C 1.328125 -27.617188 1.160156 -27.8125 0.828125 -27.8125 C 0.304688 -27.882812 0.046875 -28.226562 0.046875 -28.84375 L 0.046875 -32.1875 C 0.046875 -32.507812 0.226562 -32.707031 0.59375 -32.78125 C 0.6875 -32.78125 0.816406 -32.796875 0.984375 -32.828125 C 1.109375 -32.828125 1.222656 -32.828125 1.328125 -32.828125 C 2.929688 -32.859375 5.347656 -32.921875 8.578125 -33.015625 C 11.785156 -33.078125 14.191406 -33.128906 15.796875 -33.171875 C 16.222656 -33.171875 16.535156 -33.148438 16.734375 -33.109375 C 16.960938 -33.109375 17.109375 -32.960938 17.171875 -32.671875 L 17.171875 -31.453125 C 17.140625 -30.828125 17.09375 -29.894531 17.03125 -28.65625 C 16.957031 -27.375 16.90625 -26.40625 16.875 -25.75 C 16.8125 -25.101562 17.070312 -24.710938 17.65625 -24.578125 C 18.113281 -24.515625 18.28125 -24.285156 18.15625 -23.890625 C 18.050781 -23.171875 17.820312 -21.945312 17.46875 -20.21875 C 17.363281 -19.851562 17.132812 -19.703125 16.78125 -19.765625 C 14.09375 -20.328125 12.65625 -20.625 12.46875 -20.65625 C 12.007812 -20.75 11.78125 -21.039062 11.78125 -21.53125 C 11.8125 -22.0625 11.859375 -22.863281 11.921875 -23.9375 C 11.953125 -25.019531 11.984375 -25.820312 12.015625 -26.34375 C 12.085938 -27.289062 12.054688 -27.847656 11.921875 -28.015625 C 11.785156 -28.140625 11.242188 -28.1875 10.296875 -28.15625 C 9.941406 -28.15625 9.421875 -28.15625 8.734375 -28.15625 C 8.015625 -28.125 7.472656 -28.09375 7.109375 -28.0625 C 6.554688 -28.0625 6.28125 -27.816406 6.28125 -27.328125 L 6.28125 -21 C 6.28125 -20.632812 6.441406 -20.40625 6.765625 -20.3125 C 6.867188 -20.28125 7.035156 -20.210938 7.265625 -20.109375 C 7.492188 -20.015625 7.65625 -19.953125 7.75 -19.921875 C 10.59375 -19.003906 13.4375 -18.019531 16.28125 -16.96875 C 16.78125 -16.8125 17.078125 -16.664062 17.171875 -16.53125 C 17.234375 -16.40625 17.234375 -16.097656 17.171875 -15.609375 L 16.28125 -7.5 C 15.695312 -2.332031 15.273438 1.539062 15.015625 4.125 C 15.015625 4.21875 15 4.363281 14.96875 4.5625 C 14.9375 4.757812 14.921875 4.90625 14.921875 5 C 14.847656 5.425781 14.75 5.691406 14.625 5.796875 C 14.488281 5.890625 14.191406 5.953125 13.734375 5.984375 C 13.046875 6.078125 12.394531 6.125 11.78125 6.125 C 9.488281 6.226562 6.066406 6.363281 1.515625 6.53125 C -3.054688 6.71875 -6.472656 6.863281 -8.734375 6.96875 C -9.941406 7.03125 -14.488281 7.207031 -22.375 7.5 C -24.175781 7.570312 -25.238281 7.570312 -25.5625 7.5 Z M -25.5625 7.5 "/></g></g></g><g fill="#ff61b6" fill-opacity="1"><g transform="translate(107.278673, 66.984683)"><g><path d="M 0.34375 -17.859375 C 0.507812 -17.859375 0.753906 -17.890625 1.078125 -17.953125 C 1.671875 -18.023438 2.015625 -18.109375 2.109375 -18.203125 C 2.203125 -18.265625 2.234375 -18.539062 2.203125 -19.03125 C 2.203125 -21.65625 2.15625 -24.320312 2.0625 -27.03125 C 2.0625 -27.519531 2.007812 -27.832031 1.90625 -27.96875 C 1.8125 -28.0625 1.503906 -28.175781 0.984375 -28.3125 C 0.523438 -28.40625 0.265625 -28.503906 0.203125 -28.609375 C 0.0976562 -28.703125 0.046875 -28.992188 0.046875 -29.484375 C 0.046875 -30.691406 0.0625 -31.59375 0.09375 -32.1875 C 0.125 -32.675781 0.222656 -32.984375 0.390625 -33.109375 C 0.523438 -33.242188 0.835938 -33.3125 1.328125 -33.3125 C 4.203125 -33.25 6.328125 -33.21875 7.703125 -33.21875 L 18 -32.921875 L 18.546875 -32.921875 C 18.898438 -32.890625 19.144531 -32.820312 19.28125 -32.71875 C 19.375 -32.59375 19.40625 -32.363281 19.375 -32.03125 C 19.34375 -31.613281 19.3125 -30.992188 19.28125 -30.171875 C 19.21875 -29.316406 19.171875 -28.679688 19.140625 -28.265625 C 19.066406 -27.441406 18.96875 -26.210938 18.84375 -24.578125 C 18.675781 -22.910156 18.5625 -21.664062 18.5 -20.84375 C 18.46875 -20.488281 18.398438 -20.265625 18.296875 -20.171875 C 18.171875 -20.066406 17.941406 -20.03125 17.609375 -20.0625 L 14.515625 -20.21875 C 14.023438 -20.25 13.734375 -20.347656 13.640625 -20.515625 C 13.503906 -20.640625 13.453125 -20.960938 13.484375 -21.484375 C 13.679688 -23.835938 13.832031 -25.585938 13.9375 -26.734375 C 13.9375 -26.804688 13.953125 -26.90625 13.984375 -27.03125 C 13.984375 -27.164062 13.984375 -27.25 13.984375 -27.28125 C 13.984375 -27.738281 13.785156 -27.984375 13.390625 -28.015625 C 13.296875 -28.046875 13.164062 -28.0625 13 -28.0625 C 12.445312 -28.0625 11.613281 -28.078125 10.5 -28.109375 C 9.351562 -28.109375 8.503906 -28.109375 7.953125 -28.109375 C 7.617188 -28.109375 7.40625 -28.0625 7.3125 -27.96875 C 7.175781 -27.832031 7.109375 -27.601562 7.109375 -27.28125 C 7.179688 -24.851562 7.21875 -23.035156 7.21875 -21.828125 C 7.25 -21.472656 7.265625 -20.9375 7.265625 -20.21875 C 7.265625 -19.5 7.28125 -18.957031 7.3125 -18.59375 C 7.3125 -18.238281 7.375 -18.007812 7.5 -17.90625 C 7.601562 -17.78125 7.832031 -17.71875 8.1875 -17.71875 C 8.550781 -17.675781 9.125 -17.65625 9.90625 -17.65625 C 10.65625 -17.65625 11.226562 -17.640625 11.625 -17.609375 C 12.144531 -17.578125 12.40625 -17.316406 12.40625 -16.828125 C 12.40625 -16.046875 12.375 -14.898438 12.3125 -13.390625 C 12.28125 -13.035156 12.21875 -12.804688 12.125 -12.703125 C 11.988281 -12.609375 11.738281 -12.5625 11.375 -12.5625 C 11.050781 -12.5625 10.546875 -12.578125 9.859375 -12.609375 C 9.171875 -12.609375 8.648438 -12.609375 8.296875 -12.609375 C 7.765625 -12.609375 7.5 -12.363281 7.5 -11.875 C 7.539062 -10.53125 7.59375 -8.484375 7.65625 -5.734375 C 7.65625 -5.210938 7.898438 -4.953125 8.390625 -4.953125 L 12.953125 -4.953125 C 13.273438 -4.953125 13.488281 -5.003906 13.59375 -5.109375 C 13.65625 -5.171875 13.71875 -5.363281 13.78125 -5.6875 C 13.8125 -5.976562 13.878906 -6.40625 13.984375 -6.96875 C 14.078125 -7.519531 14.140625 -7.925781 14.171875 -8.1875 C 14.210938 -8.613281 14.460938 -8.8125 14.921875 -8.78125 C 15.335938 -8.71875 15.972656 -8.617188 16.828125 -8.484375 C 17.648438 -8.359375 18.269531 -8.257812 18.6875 -8.1875 C 19.050781 -8.125 19.203125 -7.914062 19.140625 -7.5625 C 19.003906 -6.414062 18.890625 -5.515625 18.796875 -4.859375 C 18.523438 -3.023438 18.3125 -1.648438 18.15625 -0.734375 C 18.09375 -0.378906 18.007812 -0.164062 17.90625 -0.09375 C 17.8125 0 17.582031 0.0625 17.21875 0.09375 L 1.96875 0.09375 C 1.40625 0.09375 0.992188 0.078125 0.734375 0.046875 C 0.335938 0.046875 0.140625 -0.148438 0.140625 -0.546875 C 0.109375 -1.066406 0.09375 -1.847656 0.09375 -2.890625 C 0.09375 -2.992188 0.078125 -3.191406 0.046875 -3.484375 C 0.015625 -3.742188 0.015625 -3.972656 0.046875 -4.171875 C 0.078125 -4.335938 0.144531 -4.5 0.25 -4.65625 C 0.375 -4.820312 0.535156 -4.921875 0.734375 -4.953125 C 0.929688 -4.984375 1.160156 -4.984375 1.421875 -4.953125 C 1.648438 -4.921875 1.832031 -4.921875 1.96875 -4.953125 C 2.289062 -4.984375 2.484375 -5.179688 2.546875 -5.546875 L 2.546875 -6.765625 C 2.546875 -7.878906 2.515625 -9.515625 2.453125 -11.671875 C 2.453125 -12.203125 2.40625 -12.53125 2.3125 -12.65625 C 2.207031 -12.757812 1.894531 -12.84375 1.375 -12.90625 C 1.050781 -12.90625 0.804688 -12.921875 0.640625 -12.953125 C 0.242188 -12.953125 0.046875 -13.128906 0.046875 -13.484375 C 0.046875 -15.679688 0.144531 -17.140625 0.34375 -17.859375 Z M 0.34375 -17.859375 "/></g></g></g><g fill="#000000" fill-opacity="1"><g transform="translate(37.464294, 30.77094)"><g><path d="M 2.4375 -20.75 C 2.257812 -20.832031 2.007812 -20.847656 1.6875 -20.796875 C 1.332031 -20.710938 1.082031 -20.6875 0.9375 -20.71875 C 0.8125 -21.019531 0.710938 -21.34375 0.640625 -21.6875 C 0.535156 -22.019531 0.457031 -22.445312 0.40625 -22.96875 C 0.332031 -23.46875 0.285156 -23.804688 0.265625 -23.984375 C 0.210938 -24.203125 0.3125 -24.335938 0.5625 -24.390625 C 0.582031 -24.421875 0.632812 -24.445312 0.71875 -24.46875 C 0.757812 -24.46875 0.796875 -24.46875 0.828125 -24.46875 C 3.273438 -24.914062 5.101562 -25.253906 6.3125 -25.484375 C 6.457031 -25.304688 6.53125 -24.941406 6.53125 -24.390625 C 6.476562 -23.367188 6.414062 -21.816406 6.34375 -19.734375 C 6.269531 -17.660156 6.207031 -16.097656 6.15625 -15.046875 C 6.15625 -14.847656 6.128906 -14.570312 6.078125 -14.21875 C 6.078125 -13.800781 6.128906 -13.539062 6.234375 -13.4375 C 6.328125 -13.332031 6.585938 -13.269531 7.015625 -13.25 C 7.835938 -13.175781 8.648438 -13.140625 9.453125 -13.140625 C 9.734375 -13.140625 9.921875 -13.175781 10.015625 -13.25 C 10.097656 -13.320312 10.140625 -13.5 10.140625 -13.78125 L 10.015625 -19.40625 C 9.972656 -20.550781 9.953125 -21.414062 9.953125 -22 C 9.921875 -22.34375 10.066406 -22.53125 10.390625 -22.5625 C 11.640625 -22.601562 12.554688 -22.625 13.140625 -22.625 C 13.515625 -22.625 13.710938 -22.425781 13.734375 -22.03125 L 13.734375 -21.359375 L 13.96875 -13.8125 C 13.96875 -13.1875 14.164062 -12.835938 14.5625 -12.765625 C 14.738281 -12.734375 14.828125 -12.582031 14.828125 -12.3125 C 14.796875 -12.007812 14.769531 -11.554688 14.75 -10.953125 C 14.726562 -10.328125 14.71875 -9.867188 14.71875 -9.578125 C 14.71875 -9.347656 14.675781 -9.21875 14.59375 -9.1875 C 14.425781 -9.09375 14.300781 -8.984375 14.21875 -8.859375 C 14.144531 -8.703125 14.109375 -8.585938 14.109375 -8.515625 C 14.085938 -8.421875 14.085938 -8.257812 14.109375 -8.03125 C 14.109375 -7.800781 14.109375 -7.664062 14.109375 -7.625 C 14.109375 -7.320312 14.125 -6.867188 14.15625 -6.265625 C 14.175781 -5.640625 14.1875 -5.175781 14.1875 -4.875 C 14.207031 -4.53125 14.394531 -4.316406 14.75 -4.234375 C 15.125 -4.160156 15.347656 -4.085938 15.421875 -4.015625 C 15.492188 -3.910156 15.546875 -3.671875 15.578125 -3.296875 L 15.578125 -1.234375 C 15.546875 -0.910156 15.492188 -0.710938 15.421875 -0.640625 C 15.328125 -0.535156 15.140625 -0.472656 14.859375 -0.453125 L 11.140625 -0.453125 C 10.867188 -0.472656 10.695312 -0.535156 10.625 -0.640625 C 10.519531 -0.710938 10.46875 -0.910156 10.46875 -1.234375 C 10.46875 -1.285156 10.429688 -3.023438 10.359375 -6.453125 C 10.335938 -6.953125 10.300781 -7.726562 10.25 -8.78125 C 10.195312 -9.101562 10.019531 -9.265625 9.71875 -9.265625 C 9.34375 -9.296875 8.789062 -9.332031 8.0625 -9.375 C 7.34375 -9.40625 6.796875 -9.429688 6.421875 -9.453125 C 6.140625 -9.453125 5.976562 -9.328125 5.9375 -9.078125 C 5.90625 -8.828125 5.878906 -8.476562 5.859375 -8.03125 C 5.804688 -7.582031 5.78125 -7.242188 5.78125 -7.015625 C 5.726562 -5.691406 5.648438 -3.726562 5.546875 -1.125 C 5.546875 -1.019531 5.546875 -0.894531 5.546875 -0.75 C 5.523438 -0.601562 5.515625 -0.488281 5.515625 -0.40625 C 5.492188 -0.113281 5.304688 0.03125 4.953125 0.03125 C 4.347656 0.0625 3.4375 0.078125 2.21875 0.078125 C 1.414062 0.078125 0.8125 0.0625 0.40625 0.03125 C 0.132812 0.03125 0 -0.113281 0 -0.40625 L 0 -3.296875 C 0 -3.523438 0.148438 -3.664062 0.453125 -3.71875 C 0.503906 -3.71875 0.550781 -3.726562 0.59375 -3.75 C 0.644531 -3.75 0.6875 -3.75 0.71875 -3.75 C 0.863281 -3.695312 1 -3.695312 1.125 -3.75 C 1.25 -3.800781 1.363281 -3.816406 1.46875 -3.796875 C 1.539062 -3.765625 1.601562 -3.785156 1.65625 -3.859375 C 1.695312 -3.910156 1.742188 -3.9375 1.796875 -3.9375 C 1.828125 -3.9375 1.851562 -4 1.875 -4.125 C 1.875 -4.226562 1.875 -4.304688 1.875 -4.359375 C 1.875 -4.398438 1.890625 -4.5 1.921875 -4.65625 C 1.921875 -4.800781 1.921875 -4.925781 1.921875 -5.03125 C 1.941406 -5.882812 2.003906 -7.160156 2.109375 -8.859375 C 2.109375 -9.203125 2.082031 -9.414062 2.03125 -9.5 C 1.957031 -9.570312 1.742188 -9.660156 1.390625 -9.765625 C 1.035156 -9.890625 0.882812 -10.125 0.9375 -10.46875 C 0.957031 -10.695312 0.984375 -11.046875 1.015625 -11.515625 C 1.035156 -11.972656 1.046875 -12.3125 1.046875 -12.53125 C 1.046875 -12.78125 1.0625 -12.984375 1.09375 -13.140625 C 1.113281 -13.265625 1.195312 -13.375 1.34375 -13.46875 C 1.46875 -13.570312 1.660156 -13.613281 1.921875 -13.59375 C 2.085938 -13.59375 2.195312 -13.71875 2.25 -13.96875 C 2.300781 -14.3125 2.328125 -14.582031 2.328125 -14.78125 C 2.429688 -17.257812 2.492188 -19.085938 2.515625 -20.265625 C 2.515625 -20.285156 2.488281 -20.445312 2.4375 -20.75 Z M 2.4375 -20.75 "/></g></g></g><g fill="#000000" fill-opacity="1"><g transform="translate(53.565519, 30.77094)"><g><path d="M 13.359375 -15.53125 C 13.410156 -12.53125 13.4375 -9.957031 13.4375 -7.8125 C 13.457031 -7.6875 13.46875 -7.5 13.46875 -7.25 C 13.46875 -6.914062 13.429688 -6.703125 13.359375 -6.609375 C 13.265625 -6.503906 13.050781 -6.441406 12.71875 -6.421875 C 11.125 -6.316406 9.9375 -6.238281 9.15625 -6.1875 C 6 -6.039062 3.625 -5.929688 2.03125 -5.859375 C 1.820312 -5.828125 1.507812 -5.8125 1.09375 -5.8125 C 0.6875 -5.8125 0.484375 -6 0.484375 -6.375 L 0.59375 -8.40625 C 0.675781 -9.6875 0.816406 -11.601562 1.015625 -14.15625 C 1.160156 -16.457031 1.257812 -18.234375 1.3125 -19.484375 C 1.332031 -19.703125 1.34375 -20.023438 1.34375 -20.453125 C 1.34375 -20.753906 1.179688 -20.914062 0.859375 -20.9375 C 0.554688 -20.988281 0.382812 -21.050781 0.34375 -21.125 C 0.289062 -21.175781 0.25 -21.328125 0.21875 -21.578125 C 0.125 -22.679688 0.0625 -23.507812 0.03125 -24.0625 C 0.0078125 -24.488281 0.222656 -24.710938 0.671875 -24.734375 C 0.992188 -24.753906 1.34375 -24.78125 1.71875 -24.8125 C 2.070312 -24.832031 2.472656 -24.859375 2.921875 -24.890625 C 3.347656 -24.910156 3.6875 -24.929688 3.9375 -24.953125 C 4.863281 -25.003906 6.28125 -25.09375 8.1875 -25.21875 C 10.082031 -25.320312 11.492188 -25.398438 12.421875 -25.453125 C 12.742188 -25.472656 12.941406 -25.445312 13.015625 -25.375 C 13.097656 -25.300781 13.140625 -25.097656 13.140625 -24.765625 C 13.234375 -20.710938 13.304688 -17.632812 13.359375 -15.53125 Z M 9.609375 -15.578125 L 9.453125 -15.578125 L 9.453125 -19.8125 C 9.453125 -20.09375 9.425781 -20.507812 9.375 -21.0625 C 9.332031 -21.351562 9.171875 -21.476562 8.890625 -21.4375 L 5.625 -21.203125 C 5.40625 -21.148438 5.28125 -21.023438 5.25 -20.828125 C 5.25 -20.753906 5.238281 -20.628906 5.21875 -20.453125 C 5.1875 -20.273438 5.171875 -20.140625 5.171875 -20.046875 C 5.128906 -19.210938 5.054688 -17.984375 4.953125 -16.359375 C 4.828125 -14.710938 4.738281 -13.472656 4.6875 -12.640625 C 4.664062 -12.390625 4.640625 -12.03125 4.609375 -11.5625 C 4.585938 -11.082031 4.578125 -10.71875 4.578125 -10.46875 C 4.578125 -10.195312 4.613281 -10.023438 4.6875 -9.953125 C 4.757812 -9.847656 4.9375 -9.796875 5.21875 -9.796875 C 6.019531 -9.847656 7.242188 -9.921875 8.890625 -10.015625 C 9.191406 -10.046875 9.394531 -10.109375 9.5 -10.203125 C 9.570312 -10.285156 9.609375 -10.472656 9.609375 -10.765625 Z M 10.390625 -0.078125 C 9.460938 -0.128906 8.050781 -0.21875 6.15625 -0.34375 C 4.226562 -0.4375 2.773438 -0.519531 1.796875 -0.59375 C 1.617188 -0.59375 1.382812 -0.617188 1.09375 -0.671875 C 0.863281 -0.671875 0.75 -0.785156 0.75 -1.015625 C 0.800781 -2.316406 0.851562 -3.316406 0.90625 -4.015625 C 0.90625 -4.265625 1.050781 -4.390625 1.34375 -4.390625 L 1.921875 -4.390625 C 3.492188 -4.285156 4.71875 -4.222656 5.59375 -4.203125 C 6.21875 -4.148438 7.15625 -4.085938 8.40625 -4.015625 C 9.632812 -3.941406 10.5625 -3.890625 11.1875 -3.859375 L 12.53125 -3.75 C 12.882812 -3.695312 13.097656 -3.632812 13.171875 -3.5625 C 13.242188 -3.488281 13.269531 -3.265625 13.25 -2.890625 C 13.195312 -1.835938 13.144531 -1.023438 13.09375 -0.453125 C 13.09375 -0.128906 12.921875 0.03125 12.578125 0.03125 C 12.328125 0.0078125 11.960938 -0.0234375 11.484375 -0.078125 C 10.984375 -0.0976562 10.617188 -0.109375 10.390625 -0.109375 Z M 10.390625 -0.078125 "/></g></g></g><g fill="#000000" fill-opacity="1"><g transform="translate(67.790141, 30.77094)"><g><path d="M 12.421875 -18.421875 L 12.421875 -13.015625 C 12.421875 -12.941406 12.421875 -12.894531 12.421875 -12.875 C 12.398438 -12.820312 12.390625 -12.769531 12.390625 -12.71875 C 12.359375 -12.664062 12.34375 -12.628906 12.34375 -12.609375 C 12.320312 -12.554688 12.296875 -12.519531 12.265625 -12.5 C 12.242188 -12.445312 12.222656 -12.410156 12.203125 -12.390625 C 12.148438 -12.335938 12.097656 -12.296875 12.046875 -12.265625 C 11.972656 -12.242188 11.910156 -12.222656 11.859375 -12.203125 C 11.734375 -12.117188 11.734375 -11.953125 11.859375 -11.703125 C 12.109375 -11.109375 12.410156 -10.507812 12.765625 -9.90625 C 13.085938 -9.351562 13.210938 -8.753906 13.140625 -8.109375 C 12.929688 -6.535156 12.65625 -4.195312 12.3125 -1.09375 C 12.257812 -0.738281 12.195312 -0.523438 12.125 -0.453125 C 12.019531 -0.378906 11.796875 -0.328125 11.453125 -0.296875 C 10.546875 -0.273438 9.207031 -0.238281 7.4375 -0.1875 C 5.65625 -0.113281 4.328125 -0.0625 3.453125 -0.03125 C 2.253906 0.0078125 1.351562 0.03125 0.75 0.03125 C 0.5 0.03125 0.335938 -0.015625 0.265625 -0.109375 C 0.160156 -0.179688 0.109375 -0.34375 0.109375 -0.59375 C 0.109375 -0.875 0.109375 -1.289062 0.109375 -1.84375 C 0.0859375 -2.363281 0.0625 -2.765625 0.03125 -3.046875 C 0.03125 -3.421875 0.207031 -3.644531 0.5625 -3.71875 C 0.914062 -3.738281 1.09375 -3.953125 1.09375 -4.359375 C 1.09375 -4.429688 1.101562 -4.539062 1.125 -4.6875 C 1.125 -4.84375 1.125 -4.957031 1.125 -5.03125 C 1.269531 -10.632812 1.394531 -14.835938 1.5 -17.640625 C 1.5 -17.941406 1.507812 -18.265625 1.53125 -18.609375 C 1.53125 -18.960938 1.546875 -19.351562 1.578125 -19.78125 C 1.597656 -20.207031 1.609375 -20.53125 1.609375 -20.75 C 1.640625 -21.082031 1.601562 -21.320312 1.5 -21.46875 C 1.375 -21.613281 1.148438 -21.6875 0.828125 -21.6875 C 0.703125 -21.6875 0.613281 -21.703125 0.5625 -21.734375 C 0.3125 -21.785156 0.160156 -21.847656 0.109375 -21.921875 C 0.0351562 -21.972656 0 -22.109375 0 -22.328125 C 0.0507812 -23.484375 0.101562 -24.335938 0.15625 -24.890625 C 0.175781 -25.140625 0.238281 -25.300781 0.34375 -25.375 C 0.414062 -25.445312 0.585938 -25.472656 0.859375 -25.453125 C 2.609375 -25.347656 3.910156 -25.257812 4.765625 -25.1875 C 5.460938 -25.132812 6.523438 -25.054688 7.953125 -24.953125 C 9.359375 -24.859375 10.421875 -24.785156 11.140625 -24.734375 C 11.222656 -24.734375 11.347656 -24.734375 11.515625 -24.734375 C 11.691406 -24.710938 11.832031 -24.703125 11.9375 -24.703125 C 12.1875 -24.648438 12.335938 -24.5 12.390625 -24.25 C 12.410156 -24.039062 12.421875 -23.726562 12.421875 -23.3125 Z M 4.875 -7.578125 L 4.875 -4.46875 C 4.90625 -4.0625 5.09375 -3.859375 5.4375 -3.859375 C 6.6875 -3.910156 7.640625 -3.953125 8.296875 -3.984375 C 8.671875 -3.984375 8.867188 -4.171875 8.890625 -4.546875 C 8.921875 -4.691406 8.972656 -5.015625 9.046875 -5.515625 C 9.097656 -6.015625 9.144531 -6.40625 9.1875 -6.6875 C 9.394531 -7.78125 9.234375 -8.726562 8.703125 -9.53125 C 8.554688 -9.78125 8.359375 -10.179688 8.109375 -10.734375 C 7.859375 -11.210938 7.671875 -11.488281 7.546875 -11.5625 C 7.421875 -11.613281 7.117188 -11.585938 6.640625 -11.484375 C 6.460938 -11.484375 6.335938 -11.472656 6.265625 -11.453125 C 5.660156 -11.367188 5.3125 -11.265625 5.21875 -11.140625 C 5.09375 -11.015625 5.03125 -10.640625 5.03125 -10.015625 C 4.957031 -8.390625 4.90625 -7.578125 4.875 -7.578125 Z M 5.296875 -15.28125 C 5.765625 -15.25 6.085938 -15.25 6.265625 -15.28125 C 6.441406 -15.28125 6.742188 -15.316406 7.171875 -15.390625 C 7.597656 -15.460938 7.894531 -15.507812 8.0625 -15.53125 C 8.3125 -15.5625 8.476562 -15.625 8.5625 -15.71875 C 8.632812 -15.800781 8.671875 -15.976562 8.671875 -16.25 L 8.671875 -20.421875 C 8.671875 -20.722656 8.632812 -20.921875 8.5625 -21.015625 C 8.457031 -21.117188 8.269531 -21.171875 8 -21.171875 C 7.75 -21.171875 7.484375 -21.179688 7.203125 -21.203125 C 6.929688 -21.234375 6.734375 -21.257812 6.609375 -21.28125 C 6.453125 -21.300781 6.300781 -21.3125 6.15625 -21.3125 C 5.976562 -21.289062 5.863281 -21.289062 5.8125 -21.3125 C 5.738281 -21.3125 5.664062 -21.273438 5.59375 -21.203125 C 5.488281 -21.109375 5.4375 -21.046875 5.4375 -21.015625 C 5.414062 -20.992188 5.390625 -20.894531 5.359375 -20.71875 C 5.335938 -20.539062 5.328125 -20.398438 5.328125 -20.296875 C 5.328125 -20.171875 5.328125 -19.960938 5.328125 -19.671875 C 5.304688 -19.335938 5.296875 -19.0625 5.296875 -18.84375 Z M 5.296875 -15.28125 "/></g></g></g><g fill="#000000" fill-opacity="1"><g transform="translate(81.714508, 30.77094)"><g><path d="M 12.421875 -18.421875 L 12.421875 -13.015625 C 12.421875 -12.941406 12.421875 -12.894531 12.421875 -12.875 C 12.398438 -12.820312 12.390625 -12.769531 12.390625 -12.71875 C 12.359375 -12.664062 12.34375 -12.628906 12.34375 -12.609375 C 12.320312 -12.554688 12.296875 -12.519531 12.265625 -12.5 C 12.242188 -12.445312 12.222656 -12.410156 12.203125 -12.390625 C 12.148438 -12.335938 12.097656 -12.296875 12.046875 -12.265625 C 11.972656 -12.242188 11.910156 -12.222656 11.859375 -12.203125 C 11.734375 -12.117188 11.734375 -11.953125 11.859375 -11.703125 C 12.109375 -11.109375 12.410156 -10.507812 12.765625 -9.90625 C 13.085938 -9.351562 13.210938 -8.753906 13.140625 -8.109375 C 12.929688 -6.535156 12.65625 -4.195312 12.3125 -1.09375 C 12.257812 -0.738281 12.195312 -0.523438 12.125 -0.453125 C 12.019531 -0.378906 11.796875 -0.328125 11.453125 -0.296875 C 10.546875 -0.273438 9.207031 -0.238281 7.4375 -0.1875 C 5.65625 -0.113281 4.328125 -0.0625 3.453125 -0.03125 C 2.253906 0.0078125 1.351562 0.03125 0.75 0.03125 C 0.5 0.03125 0.335938 -0.015625 0.265625 -0.109375 C 0.160156 -0.179688 0.109375 -0.34375 0.109375 -0.59375 C 0.109375 -0.875 0.109375 -1.289062 0.109375 -1.84375 C 0.0859375 -2.363281 0.0625 -2.765625 0.03125 -3.046875 C 0.03125 -3.421875 0.207031 -3.644531 0.5625 -3.71875 C 0.914062 -3.738281 1.09375 -3.953125 1.09375 -4.359375 C 1.09375 -4.429688 1.101562 -4.539062 1.125 -4.6875 C 1.125 -4.84375 1.125 -4.957031 1.125 -5.03125 C 1.269531 -10.632812 1.394531 -14.835938 1.5 -17.640625 C 1.5 -17.941406 1.507812 -18.265625 1.53125 -18.609375 C 1.53125 -18.960938 1.546875 -19.351562 1.578125 -19.78125 C 1.597656 -20.207031 1.609375 -20.53125 1.609375 -20.75 C 1.640625 -21.082031 1.601562 -21.320312 1.5 -21.46875 C 1.375 -21.613281 1.148438 -21.6875 0.828125 -21.6875 C 0.703125 -21.6875 0.613281 -21.703125 0.5625 -21.734375 C 0.3125 -21.785156 0.160156 -21.847656 0.109375 -21.921875 C 0.0351562 -21.972656 0 -22.109375 0 -22.328125 C 0.0507812 -23.484375 0.101562 -24.335938 0.15625 -24.890625 C 0.175781 -25.140625 0.238281 -25.300781 0.34375 -25.375 C 0.414062 -25.445312 0.585938 -25.472656 0.859375 -25.453125 C 2.609375 -25.347656 3.910156 -25.257812 4.765625 -25.1875 C 5.460938 -25.132812 6.523438 -25.054688 7.953125 -24.953125 C 9.359375 -24.859375 10.421875 -24.785156 11.140625 -24.734375 C 11.222656 -24.734375 11.347656 -24.734375 11.515625 -24.734375 C 11.691406 -24.710938 11.832031 -24.703125 11.9375 -24.703125 C 12.1875 -24.648438 12.335938 -24.5 12.390625 -24.25 C 12.410156 -24.039062 12.421875 -23.726562 12.421875 -23.3125 Z M 4.875 -7.578125 L 4.875 -4.46875 C 4.90625 -4.0625 5.09375 -3.859375 5.4375 -3.859375 C 6.6875 -3.910156 7.640625 -3.953125 8.296875 -3.984375 C 8.671875 -3.984375 8.867188 -4.171875 8.890625 -4.546875 C 8.921875 -4.691406 8.972656 -5.015625 9.046875 -5.515625 C 9.097656 -6.015625 9.144531 -6.40625 9.1875 -6.6875 C 9.394531 -7.78125 9.234375 -8.726562 8.703125 -9.53125 C 8.554688 -9.78125 8.359375 -10.179688 8.109375 -10.734375 C 7.859375 -11.210938 7.671875 -11.488281 7.546875 -11.5625 C 7.421875 -11.613281 7.117188 -11.585938 6.640625 -11.484375 C 6.460938 -11.484375 6.335938 -11.472656 6.265625 -11.453125 C 5.660156 -11.367188 5.3125 -11.265625 5.21875 -11.140625 C 5.09375 -11.015625 5.03125 -10.640625 5.03125 -10.015625 C 4.957031 -8.390625 4.90625 -7.578125 4.875 -7.578125 Z M 5.296875 -15.28125 C 5.765625 -15.25 6.085938 -15.25 6.265625 -15.28125 C 6.441406 -15.28125 6.742188 -15.316406 7.171875 -15.390625 C 7.597656 -15.460938 7.894531 -15.507812 8.0625 -15.53125 C 8.3125 -15.5625 8.476562 -15.625 8.5625 -15.71875 C 8.632812 -15.800781 8.671875 -15.976562 8.671875 -16.25 L 8.671875 -20.421875 C 8.671875 -20.722656 8.632812 -20.921875 8.5625 -21.015625 C 8.457031 -21.117188 8.269531 -21.171875 8 -21.171875 C 7.75 -21.171875 7.484375 -21.179688 7.203125 -21.203125 C 6.929688 -21.234375 6.734375 -21.257812 6.609375 -21.28125 C 6.453125 -21.300781 6.300781 -21.3125 6.15625 -21.3125 C 5.976562 -21.289062 5.863281 -21.289062 5.8125 -21.3125 C 5.738281 -21.3125 5.664062 -21.273438 5.59375 -21.203125 C 5.488281 -21.109375 5.4375 -21.046875 5.4375 -21.015625 C 5.414062 -20.992188 5.390625 -20.894531 5.359375 -20.71875 C 5.335938 -20.539062 5.328125 -20.398438 5.328125 -20.296875 C 5.328125 -20.171875 5.328125 -19.960938 5.328125 -19.671875 C 5.304688 -19.335938 5.296875 -19.0625 5.296875 -18.84375 Z M 5.296875 -15.28125 "/></g></g></g><g fill="#000000" fill-opacity="1"><g transform="translate(95.638875, 30.77094)"><g><path d="M 9.3125 -9.828125 L 4.953125 -9.828125 C 4.003906 -9.804688 3.53125 -9.804688 3.53125 -9.828125 C 3.125 -9.828125 2.882812 -9.867188 2.8125 -9.953125 C 2.71875 -10.023438 2.65625 -10.257812 2.625 -10.65625 C 2.53125 -12.457031 2.46875 -13.8125 2.4375 -14.71875 C 2.414062 -15.4375 2.367188 -16.882812 2.296875 -19.0625 C 2.191406 -21.238281 2.101562 -22.925781 2.03125 -24.125 C 2 -24.40625 1.984375 -24.722656 1.984375 -25.078125 C 1.960938 -25.421875 1.960938 -25.65625 1.984375 -25.78125 C 1.984375 -25.882812 1.960938 -26.023438 1.921875 -26.203125 C 1.835938 -26.347656 1.785156 -26.429688 1.765625 -26.453125 C 1.734375 -26.453125 1.644531 -26.476562 1.5 -26.53125 C 1.320312 -26.582031 1.171875 -26.597656 1.046875 -26.578125 C 0.921875 -26.546875 0.695312 -26.53125 0.375 -26.53125 L -0.5625 -26.53125 C -2.882812 -26.53125 -6.347656 -26.484375 -10.953125 -26.390625 C -11.503906 -26.390625 -12.332031 -26.390625 -13.4375 -26.390625 C -14.539062 -26.359375 -15.378906 -26.34375 -15.953125 -26.34375 C -16.378906 -26.34375 -16.691406 -26.359375 -16.890625 -26.390625 C -17.117188 -26.390625 -17.234375 -26.5 -17.234375 -26.71875 C -17.253906 -27.375 -17.265625 -28.363281 -17.265625 -29.6875 C -17.265625 -29.882812 -17.140625 -29.984375 -16.890625 -29.984375 C -16.535156 -30.035156 -16.269531 -30.0625 -16.09375 -30.0625 L -2.21875 -30.25 L 3.984375 -30.359375 L 5.0625 -30.359375 C 5.34375 -30.335938 5.492188 -30.1875 5.515625 -29.90625 L 5.59375 -28.828125 L 6.15625 -14.71875 C 6.175781 -14.59375 6.1875 -14.40625 6.1875 -14.15625 C 6.21875 -13.78125 6.40625 -13.578125 6.75 -13.546875 L 9.875 -13.546875 C 10.175781 -13.597656 10.347656 -13.773438 10.390625 -14.078125 C 10.421875 -14.328125 10.4375 -14.6875 10.4375 -15.15625 L 10.734375 -23.375 C 10.753906 -23.832031 10.804688 -24.109375 10.890625 -24.203125 C 10.960938 -24.304688 11.222656 -24.421875 11.671875 -24.546875 L 14.5625 -25.328125 C 14.9375 -25.429688 15.175781 -25.296875 15.28125 -24.921875 L 15.6875 -23.375 C 15.882812 -22.601562 15.972656 -22.164062 15.953125 -22.0625 C 15.921875 -21.9375 15.84375 -21.835938 15.71875 -21.765625 C 15.59375 -21.691406 15.429688 -21.644531 15.234375 -21.625 C 15.035156 -21.570312 14.898438 -21.53125 14.828125 -21.5 C 14.578125 -21.425781 14.453125 -21.265625 14.453125 -21.015625 C 14.378906 -20.515625 14.34375 -20.023438 14.34375 -19.546875 C 14.238281 -17.347656 14.113281 -14.070312 13.96875 -9.71875 L 13.703125 -2.546875 C 13.703125 -2.503906 13.703125 -2.429688 13.703125 -2.328125 C 13.671875 -2.203125 13.65625 -2.101562 13.65625 -2.03125 C 13.613281 -1.78125 13.46875 -1.628906 13.21875 -1.578125 C 12.082031 -1.378906 11.15625 -1.238281 10.4375 -1.15625 L 2.8125 -0.03125 C 2.738281 -0.0078125 2.613281 0 2.4375 0 C 2.113281 0 1.941406 -0.160156 1.921875 -0.484375 L 1.921875 -6.15625 C 1.921875 -6.507812 2.066406 -6.6875 2.359375 -6.6875 C 3.335938 -6.707031 4.289062 -6.707031 5.21875 -6.6875 C 5.488281 -6.6875 5.625 -6.546875 5.625 -6.265625 C 5.65625 -5.941406 5.671875 -5.441406 5.671875 -4.765625 C 5.691406 -4.441406 5.863281 -4.289062 6.1875 -4.3125 C 7.238281 -4.4375 8.09375 -4.5625 8.75 -4.6875 C 9.375 -4.8125 9.75 -4.9375 9.875 -5.0625 C 10 -5.164062 10.070312 -5.53125 10.09375 -6.15625 C 10.144531 -7.351562 10.171875 -8.253906 10.171875 -8.859375 C 10.191406 -9.304688 10.164062 -9.582031 10.09375 -9.6875 C 10 -9.757812 9.738281 -9.804688 9.3125 -9.828125 Z M 9.3125 -9.828125 "/></g></g></g></svg>